<svg width="15" height="16" viewBox="0 0 15 16" fill="none" xmlns="http://www.w3.org/2000/svg">
<path d="M11.75 15.5C11.125 15.5 10.5938 15.2812 10.1562 14.8438C9.71875 14.4062 9.5 13.875 9.5 13.25C9.5 13.175 9.51875 13 9.55625 12.725L4.2875 9.65C4.0875 9.8375 3.85625 9.98437 3.59375 10.0906C3.33125 10.1969 3.05 10.25 2.75 10.25C2.125 10.25 1.59375 10.0312 1.15625 9.59375C0.71875 9.15625 0.5 8.625 0.5 8C0.5 7.375 0.71875 6.84375 1.15625 6.40625C1.59375 5.96875 2.125 5.75 2.75 5.75C3.05 5.75 3.33125 5.80313 3.59375 5.90938C3.85625 6.01563 4.0875 6.1625 4.2875 6.35L9.55625 3.275C9.53125 3.1875 9.51562 3.10312 9.50937 3.02187C9.50312 2.94062 9.5 2.85 9.5 2.75C9.5 2.125 9.71875 1.59375 10.1562 1.15625C10.5938 0.71875 11.125 0.5 11.75 0.5C12.375 0.5 12.9062 0.71875 13.3438 1.15625C13.7812 1.59375 14 2.125 14 2.75C14 3.375 13.7812 3.90625 13.3438 4.34375C12.9062 4.78125 12.375 5 11.75 5C11.45 5 11.1687 4.94687 10.9062 4.84062C10.6438 4.73437 10.4125 4.5875 10.2125 4.4L4.94375 7.475C4.96875 7.5625 4.98437 7.64688 4.99062 7.72813C4.99687 7.80938 5 7.9 5 8C5 8.1 4.99687 8.19062 4.99062 8.27187C4.98437 8.35312 4.96875 8.4375 4.94375 8.525L10.2125 11.6C10.4125 11.4125 10.6438 11.2656 10.9062 11.1594C11.1687 11.0531 11.45 11 11.75 11C12.375 11 12.9062 11.2188 13.3438 11.6562C13.7812 12.0938 14 12.625 14 13.25C14 13.875 13.7812 14.4062 13.3438 14.8438C12.9062 15.2812 12.375 15.5 11.75 15.5ZM11.75 14C11.9625 14 12.1406 13.9281 12.2844 13.7844C12.4281 13.6406 12.5 13.4625 12.5 13.25C12.5 13.0375 12.4281 12.8594 12.2844 12.7156C12.1406 12.5719 11.9625 12.5 11.75 12.5C11.5375 12.5 11.3594 12.5719 11.2156 12.7156C11.0719 12.8594 11 13.0375 11 13.25C11 13.4625 11.0719 13.6406 11.2156 13.7844C11.3594 13.9281 11.5375 14 11.75 14ZM2.75 8.75C2.9625 8.75 3.14062 8.67813 3.28437 8.53438C3.42812 8.39063 3.5 8.2125 3.5 8C3.5 7.7875 3.42812 7.60937 3.28437 7.46562C3.14062 7.32187 2.9625 7.25 2.75 7.25C2.5375 7.25 2.35938 7.32187 2.21563 7.46562C2.07188 7.60937 2 7.7875 2 8C2 8.2125 2.07188 8.39063 2.21563 8.53438C2.35938 8.67813 2.5375 8.75 2.75 8.75ZM11.75 3.5C11.9625 3.5 12.1406 3.42812 12.2844 3.28437C12.4281 3.14062 12.5 2.9625 12.5 2.75C12.5 2.5375 12.4281 2.35938 12.2844 2.21563C12.1406 2.07188 11.9625 2 11.75 2C11.5375 2 11.3594 2.07188 11.2156 2.21563C11.0719 2.35938 11 2.5375 11 2.75C11 2.9625 11.0719 3.14062 11.2156 3.28437C11.3594 3.42812 11.5375 3.5 11.75 3.5Z" fill="#1B1B1B"/>
<path d="M11.75 15.5C11.125 15.5 10.5938 15.2812 10.1562 14.8438C9.71875 14.4062 9.5 13.875 9.5 13.25C9.5 13.175 9.51875 13 9.55625 12.725L4.2875 9.65C4.0875 9.8375 3.85625 9.98437 3.59375 10.0906C3.33125 10.1969 3.05 10.25 2.75 10.25C2.125 10.25 1.59375 10.0312 1.15625 9.59375C0.71875 9.15625 0.5 8.625 0.5 8C0.5 7.375 0.71875 6.84375 1.15625 6.40625C1.59375 5.96875 2.125 5.75 2.75 5.75C3.05 5.75 3.33125 5.80313 3.59375 5.90938C3.85625 6.01563 4.0875 6.1625 4.2875 6.35L9.55625 3.275C9.53125 3.1875 9.51562 3.10312 9.50937 3.02187C9.50312 2.94062 9.5 2.85 9.5 2.75C9.5 2.125 9.71875 1.59375 10.1562 1.15625C10.5938 0.71875 11.125 0.5 11.75 0.5C12.375 0.5 12.9062 0.71875 13.3438 1.15625C13.7812 1.59375 14 2.125 14 2.75C14 3.375 13.7812 3.90625 13.3438 4.34375C12.9062 4.78125 12.375 5 11.75 5C11.45 5 11.1687 4.94687 10.9062 4.84062C10.6438 4.73437 10.4125 4.5875 10.2125 4.4L4.94375 7.475C4.96875 7.5625 4.98437 7.64688 4.99062 7.72813C4.99687 7.80938 5 7.9 5 8C5 8.1 4.99687 8.19062 4.99062 8.27187C4.98437 8.35312 4.96875 8.4375 4.94375 8.525L10.2125 11.6C10.4125 11.4125 10.6438 11.2656 10.9062 11.1594C11.1687 11.0531 11.45 11 11.75 11C12.375 11 12.9062 11.2188 13.3438 11.6562C13.7812 12.0938 14 12.625 14 13.25C14 13.875 13.7812 14.4062 13.3438 14.8438C12.9062 15.2812 12.375 15.5 11.75 15.5ZM11.75 14C11.9625 14 12.1406 13.9281 12.2844 13.7844C12.4281 13.6406 12.5 13.4625 12.5 13.25C12.5 13.0375 12.4281 12.8594 12.2844 12.7156C12.1406 12.5719 11.9625 12.5 11.75 12.5C11.5375 12.5 11.3594 12.5719 11.2156 12.7156C11.0719 12.8594 11 13.0375 11 13.25C11 13.4625 11.0719 13.6406 11.2156 13.7844C11.3594 13.9281 11.5375 14 11.75 14ZM2.75 8.75C2.9625 8.75 3.14062 8.67813 3.28437 8.53438C3.42812 8.39063 3.5 8.2125 3.5 8C3.5 7.7875 3.42812 7.60937 3.28437 7.46562C3.14062 7.32187 2.9625 7.25 2.75 7.25C2.5375 7.25 2.35938 7.32187 2.21563 7.46562C2.07188 7.60937 2 7.7875 2 8C2 8.2125 2.07188 8.39063 2.21563 8.53438C2.35938 8.67813 2.5375 8.75 2.75 8.75ZM11.75 3.5C11.9625 3.5 12.1406 3.42812 12.2844 3.28437C12.4281 3.14062 12.5 2.9625 12.5 2.75C12.5 2.5375 12.4281 2.35938 12.2844 2.21563C12.1406 2.07188 11.9625 2 11.75 2C11.5375 2 11.3594 2.07188 11.2156 2.21563C11.0719 2.35938 11 2.5375 11 2.75C11 2.9625 11.0719 3.14062 11.2156 3.28437C11.3594 3.42812 11.5375 3.5 11.75 3.5Z" stroke="black" stroke-linejoin="bevel"/>
<path d="M11.75 15.5C11.125 15.5 10.5938 15.2812 10.1562 14.8438C9.71875 14.4062 9.5 13.875 9.5 13.25C9.5 13.175 9.51875 13 9.55625 12.725L4.2875 9.65C4.0875 9.8375 3.85625 9.98437 3.59375 10.0906C3.33125 10.1969 3.05 10.25 2.75 10.25C2.125 10.25 1.59375 10.0312 1.15625 9.59375C0.71875 9.15625 0.5 8.625 0.5 8C0.5 7.375 0.71875 6.84375 1.15625 6.40625C1.59375 5.96875 2.125 5.75 2.75 5.75C3.05 5.75 3.33125 5.80313 3.59375 5.90938C3.85625 6.01563 4.0875 6.1625 4.2875 6.35L9.55625 3.275C9.53125 3.1875 9.51562 3.10312 9.50937 3.02187C9.50312 2.94062 9.5 2.85 9.5 2.75C9.5 2.125 9.71875 1.59375 10.1562 1.15625C10.5938 0.71875 11.125 0.5 11.75 0.5C12.375 0.5 12.9062 0.71875 13.3438 1.15625C13.7812 1.59375 14 2.125 14 2.75C14 3.375 13.7812 3.90625 13.3438 4.34375C12.9062 4.78125 12.375 5 11.75 5C11.45 5 11.1687 4.94687 10.9062 4.84062C10.6438 4.73437 10.4125 4.5875 10.2125 4.4L4.94375 7.475C4.96875 7.5625 4.98437 7.64688 4.99062 7.72813C4.99687 7.80938 5 7.9 5 8C5 8.1 4.99687 8.19062 4.99062 8.27187C4.98437 8.35312 4.96875 8.4375 4.94375 8.525L10.2125 11.6C10.4125 11.4125 10.6438 11.2656 10.9062 11.1594C11.1687 11.0531 11.45 11 11.75 11C12.375 11 12.9062 11.2188 13.3438 11.6562C13.7812 12.0938 14 12.625 14 13.25C14 13.875 13.7812 14.4062 13.3438 14.8438C12.9062 15.2812 12.375 15.5 11.75 15.5ZM11.75 14C11.9625 14 12.1406 13.9281 12.2844 13.7844C12.4281 13.6406 12.5 13.4625 12.5 13.25C12.5 13.0375 12.4281 12.8594 12.2844 12.7156C12.1406 12.5719 11.9625 12.5 11.75 12.5C11.5375 12.5 11.3594 12.5719 11.2156 12.7156C11.0719 12.8594 11 13.0375 11 13.25C11 13.4625 11.0719 13.6406 11.2156 13.7844C11.3594 13.9281 11.5375 14 11.75 14ZM2.75 8.75C2.9625 8.75 3.14062 8.67813 3.28437 8.53438C3.42812 8.39063 3.5 8.2125 3.5 8C3.5 7.7875 3.42812 7.60937 3.28437 7.46562C3.14062 7.32187 2.9625 7.25 2.75 7.25C2.5375 7.25 2.35938 7.32187 2.21563 7.46562C2.07188 7.60937 2 7.7875 2 8C2 8.2125 2.07188 8.39063 2.21563 8.53438C2.35938 8.67813 2.5375 8.75 2.75 8.75ZM11.75 3.5C11.9625 3.5 12.1406 3.42812 12.2844 3.28437C12.4281 3.14062 12.5 2.9625 12.5 2.75C12.5 2.5375 12.4281 2.35938 12.2844 2.21563C12.1406 2.07188 11.9625 2 11.75 2C11.5375 2 11.3594 2.07188 11.2156 2.21563C11.0719 2.35938 11 2.5375 11 2.75C11 2.9625 11.0719 3.14062 11.2156 3.28437C11.3594 3.42812 11.5375 3.5 11.75 3.5Z" stroke="black" stroke-opacity="0.2" stroke-linejoin="bevel"/>
<path d="M11.75 15.5C11.125 15.5 10.5938 15.2812 10.1562 14.8438C9.71875 14.4062 9.5 13.875 9.5 13.25C9.5 13.175 9.51875 13 9.55625 12.725L4.2875 9.65C4.0875 9.8375 3.85625 9.98437 3.59375 10.0906C3.33125 10.1969 3.05 10.25 2.75 10.25C2.125 10.25 1.59375 10.0312 1.15625 9.59375C0.71875 9.15625 0.5 8.625 0.5 8C0.5 7.375 0.71875 6.84375 1.15625 6.40625C1.59375 5.96875 2.125 5.75 2.75 5.75C3.05 5.75 3.33125 5.80313 3.59375 5.90938C3.85625 6.01563 4.0875 6.1625 4.2875 6.35L9.55625 3.275C9.53125 3.1875 9.51562 3.10312 9.50937 3.02187C9.50312 2.94062 9.5 2.85 9.5 2.75C9.5 2.125 9.71875 1.59375 10.1562 1.15625C10.5938 0.71875 11.125 0.5 11.75 0.5C12.375 0.5 12.9062 0.71875 13.3438 1.15625C13.7812 1.59375 14 2.125 14 2.75C14 3.375 13.7812 3.90625 13.3438 4.34375C12.9062 4.78125 12.375 5 11.75 5C11.45 5 11.1687 4.94687 10.9062 4.84062C10.6438 4.73437 10.4125 4.5875 10.2125 4.4L4.94375 7.475C4.96875 7.5625 4.98437 7.64688 4.99062 7.72813C4.99687 7.80938 5 7.9 5 8C5 8.1 4.99687 8.19062 4.99062 8.27187C4.98437 8.35312 4.96875 8.4375 4.94375 8.525L10.2125 11.6C10.4125 11.4125 10.6438 11.2656 10.9062 11.1594C11.1687 11.0531 11.45 11 11.75 11C12.375 11 12.9062 11.2188 13.3438 11.6562C13.7812 12.0938 14 12.625 14 13.25C14 13.875 13.7812 14.4062 13.3438 14.8438C12.9062 15.2812 12.375 15.5 11.75 15.5ZM11.75 14C11.9625 14 12.1406 13.9281 12.2844 13.7844C12.4281 13.6406 12.5 13.4625 12.5 13.25C12.5 13.0375 12.4281 12.8594 12.2844 12.7156C12.1406 12.5719 11.9625 12.5 11.75 12.5C11.5375 12.5 11.3594 12.5719 11.2156 12.7156C11.0719 12.8594 11 13.0375 11 13.25C11 13.4625 11.0719 13.6406 11.2156 13.7844C11.3594 13.9281 11.5375 14 11.75 14ZM2.75 8.75C2.9625 8.75 3.14062 8.67813 3.28437 8.53438C3.42812 8.39063 3.5 8.2125 3.5 8C3.5 7.7875 3.42812 7.60937 3.28437 7.46562C3.14062 7.32187 2.9625 7.25 2.75 7.25C2.5375 7.25 2.35938 7.32187 2.21563 7.46562C2.07188 7.60937 2 7.7875 2 8C2 8.2125 2.07188 8.39063 2.21563 8.53438C2.35938 8.67813 2.5375 8.75 2.75 8.75ZM11.75 3.5C11.9625 3.5 12.1406 3.42812 12.2844 3.28437C12.4281 3.14062 12.5 2.9625 12.5 2.75C12.5 2.5375 12.4281 2.35938 12.2844 2.21563C12.1406 2.07188 11.9625 2 11.75 2C11.5375 2 11.3594 2.07188 11.2156 2.21563C11.0719 2.35938 11 2.5375 11 2.75C11 2.9625 11.0719 3.14062 11.2156 3.28437C11.3594 3.42812 11.5375 3.5 11.75 3.5Z" stroke="black" stroke-opacity="0.2" stroke-linejoin="bevel"/>
</svg>
