<svg width="42" height="42" viewBox="0 0 42 42" fill="none" xmlns="http://www.w3.org/2000/svg">
<path d="M0 21C0 9.40202 9.40202 0 21 0C32.598 0 42 9.40202 42 21C42 32.598 32.598 42 21 42C9.40202 42 0 32.598 0 21Z" fill="#0077B5"/>
<path d="M14.8401 31.6924H10.0813V17.3936H14.8401V31.6924ZM26.5237 17.0576C29.6553 17.0576 32.0031 19.1014 32.0032 23.4932V31.6924H27.2444V24.042C27.2443 22.1207 26.5558 20.8097 24.8333 20.8096C23.5185 20.8096 22.7348 21.6932 22.3909 22.5469C22.265 22.8528 22.2346 23.2797 22.2346 23.707V31.6924H17.4749C17.4751 31.6487 17.5375 18.7334 17.4749 17.3936H22.2346V19.4189C22.8662 18.4454 23.9972 17.0577 26.5237 17.0576ZM12.4924 10.5C14.1204 10.5 15.1226 11.5678 15.1536 12.9697C15.1536 14.3427 14.1205 15.4414 12.4612 15.4414H12.4309C10.8332 15.4414 9.80005 14.3427 9.80005 12.9697C9.80012 11.5678 10.8645 10.5 12.4924 10.5Z" fill="white"/>
</svg>
