<svg viewBox="504 217 418 261" fill="none" xmlns="http://www.w3.org/2000/svg">
<path fill-rule="evenodd" clip-rule="evenodd" d="M524.691 430.391C524.691 430.387 524.691 430.383 524.691 430.379L524.691 430.391Z" fill="url(#paint0_linear_83_91)"/>
<path fill-rule="evenodd" clip-rule="evenodd" d="M596.312 474C596.312 476.209 594.522 478 592.313 478H508.125C505.868 478 504.058 476.133 504.127 473.877L507.757 356.106C507.764 355.87 507.793 355.631 507.842 355.401C514.085 325.838 520.008 310.268 537.283 286.07C571.53 244.073 594.022 228.76 651.805 217.08C652.065 217.028 652.336 217 652.601 217H756.154C757.511 217 758.775 217.688 759.512 218.827L797.697 277.857C799.267 280.284 802.815 280.295 804.4 277.877L841.923 220.641C842.662 219.513 843.919 218.834 845.268 218.834H918.614C921.791 218.834 923.7 222.359 921.964 225.019L843.271 345.63C842.407 346.953 842.404 348.66 843.261 349.987L922.011 471.829C923.732 474.49 921.821 478 918.652 478H845.877C844.539 478 843.29 477.331 842.548 476.217L803.13 417.022C801.541 414.635 798.03 414.647 796.457 417.044L757.653 476.162C756.902 477.307 755.617 477.987 754.248 477.967L683.271 476.887C680.132 476.839 678.269 473.359 679.97 470.72L716.256 414.431L737.298 382.504C737.503 382.193 737.731 381.839 737.548 381.514C735.523 377.916 709.325 359.002 686.741 355.752C668.301 353.098 642.434 361.667 635.664 365.387C634.449 366.054 633.325 367.281 632.248 368.154C611.296 385.14 602.834 397.897 596.416 425.597C596.348 425.89 596.312 426.197 596.312 426.498V474ZM524.691 430.391L524.691 430.379C524.475 402.621 524.345 385.807 526.582 359.112C526.598 358.912 526.631 358.709 526.678 358.513C534.312 326.771 548.262 301.205 550.47 302.574C552.392 303.765 571.777 336.015 576.877 344.535C577.637 345.805 577.621 347.374 576.854 348.64L526.907 431.001C526.283 432.03 524.7 431.595 524.691 430.391ZM537.077 453.629C535.503 456.296 537.425 459.663 540.522 459.663H573.758C576.097 459.663 577.934 457.658 577.767 455.325C575.085 417.786 579.599 400.619 595.623 379.641C596.747 378.169 596.761 376.117 595.616 374.66L592.947 371.262C591.228 369.075 587.856 369.266 586.396 371.635L564.914 406.485L537.077 453.629ZM585.922 323.339C587.516 325.864 591.215 325.816 592.742 323.25L637.879 247.412C639.598 244.524 637.205 240.945 633.902 241.567C622.621 243.695 614.162 246.817 600.708 254.286C583.721 264.289 575.969 271.147 564.433 283.823C563.228 285.147 563.061 287.115 564.016 288.628L585.922 323.339ZM602.02 344.443C601.218 345.752 601.235 347.404 602.064 348.695L607.746 357.543C609.022 359.531 611.737 359.978 613.618 358.549C633.08 343.766 646.555 338.781 671.67 337.415C704.003 336.035 720.166 342.882 744.26 363.767C746.073 365.338 748.862 365.022 750.234 363.055L758.057 351.833C758.983 350.505 759.017 348.75 758.144 347.388L687.921 237.791C687.186 236.643 685.917 235.948 684.553 235.948H670.769C669.378 235.948 668.086 236.672 667.359 237.858L602.02 344.443ZM713.413 242.143C711.668 239.483 713.576 235.948 716.757 235.948H743.601C744.954 235.948 746.216 236.633 746.954 237.768L787.71 300.435C788.559 301.74 788.574 303.418 787.749 304.737L774.828 325.397C773.282 327.871 769.693 327.91 768.093 325.471L713.413 242.143ZM804.254 325.451C802.73 323.014 799.21 322.932 797.574 325.295L783.133 346.152C782.189 347.516 782.185 349.321 783.122 350.689L797.048 371.022C798.652 373.364 802.117 373.337 803.684 370.97L817.195 350.563C818.06 349.256 818.082 347.564 817.251 346.234L804.254 325.451ZM768.262 371.705C769.82 369.337 773.278 369.295 774.893 371.625L788.208 390.842C789.129 392.171 789.159 393.924 788.284 395.284L748.836 456.604C748.1 457.749 746.832 458.44 745.472 458.44H718.649C715.466 458.44 713.558 454.902 715.307 452.243L768.262 371.705ZM813.226 304.765C812.307 303.438 812.276 301.689 813.147 300.33L853.23 237.79C853.966 236.643 855.235 235.948 856.598 235.948H883C886.139 235.948 888.055 239.399 886.395 242.064L834.394 325.525C832.873 327.967 829.348 328.052 827.711 325.686L813.226 304.765ZM834.309 371.62C832.794 369.268 829.396 369.157 827.731 371.405L813.365 390.801C812.369 392.145 812.315 393.967 813.23 395.368L853.227 456.627C853.965 457.758 855.225 458.44 856.576 458.44H882.873C886.039 458.44 887.95 454.937 886.236 452.275L834.309 371.62Z" fill="url(#paint1_linear_83_91)"/>
<g filter="url(#filter0_di_83_91)">
<circle cx="518" cy="357" r="10" fill="white"/>
</g>
<g opacity="0.2">
<g filter="url(#filter1_f_83_91)">
<rect x="-49" y="-107.09" width="512" height="364.39" rx="182.195" fill="#09468C" fill-opacity="0.75"/>
</g>
<g filter="url(#filter2_f_83_91)">
<rect x="1084" y="822" width="512" height="364.39" rx="182.195" fill="#CBDAFD"/>
</g>
</g>
<g filter="url(#filter3_di_83_91)">
<circle cx="680" cy="227" r="10" fill="white"/>
</g>
<g filter="url(#filter4_di_83_91)">
<circle cx="508" cy="468" r="10" fill="white"/>
</g>
<g filter="url(#filter5_di_83_91)">
<circle cx="592" cy="348" r="10" fill="white"/>
</g>
<g filter="url(#filter6_di_83_91)">
<circle cx="592" cy="468" r="10" fill="white"/>
</g>
<g filter="url(#filter7_di_83_91)">
<circle cx="680" cy="347" r="10" fill="white"/>
</g>
<g filter="url(#filter8_di_83_91)">
<circle cx="550" cy="286" r="10" fill="white"/>
</g>
<defs>
<filter id="filter0_di_83_91" x="502" y="342" width="32" height="32" filterUnits="userSpaceOnUse" color-interpolation-filters="sRGB">
<feFlood flood-opacity="0" result="BackgroundImageFix"/>
<feColorMatrix in="SourceAlpha" type="matrix" values="0 0 0 0 0 0 0 0 0 0 0 0 0 0 0 0 0 0 127 0" result="hardAlpha"/>
<feMorphology radius="2" operator="dilate" in="SourceAlpha" result="effect1_dropShadow_83_91"/>
<feOffset dy="1"/>
<feGaussianBlur stdDeviation="2"/>
<feComposite in2="hardAlpha" operator="out"/>
<feColorMatrix type="matrix" values="0 0 0 0 1 0 0 0 0 0.983654 0 0 0 0 0.983654 0 0 0 0.25 0"/>
<feBlend mode="overlay" in2="BackgroundImageFix" result="effect1_dropShadow_83_91"/>
<feBlend mode="normal" in="SourceGraphic" in2="effect1_dropShadow_83_91" result="shape"/>
<feColorMatrix in="SourceAlpha" type="matrix" values="0 0 0 0 0 0 0 0 0 0 0 0 0 0 0 0 0 0 127 0" result="hardAlpha"/>
<feMorphology radius="1" operator="erode" in="SourceAlpha" result="effect2_innerShadow_83_91"/>
<feOffset dy="1"/>
<feGaussianBlur stdDeviation="2.95"/>
<feComposite in2="hardAlpha" operator="arithmetic" k2="-1" k3="1"/>
<feColorMatrix type="matrix" values="0 0 0 0 0 0 0 0 0 0.260633 0 0 0 0 0.553846 0 0 0 1 0"/>
<feBlend mode="normal" in2="shape" result="effect2_innerShadow_83_91"/>
</filter>
<filter id="filter1_f_83_91" x="-169" y="-227.09" width="752" height="604.39" filterUnits="userSpaceOnUse" color-interpolation-filters="sRGB">
<feFlood flood-opacity="0" result="BackgroundImageFix"/>
<feBlend mode="normal" in="SourceGraphic" in2="BackgroundImageFix" result="shape"/>
<feGaussianBlur stdDeviation="60" result="effect1_foregroundBlur_83_91"/>
</filter>
<filter id="filter2_f_83_91" x="964" y="702" width="752" height="604.39" filterUnits="userSpaceOnUse" color-interpolation-filters="sRGB">
<feFlood flood-opacity="0" result="BackgroundImageFix"/>
<feBlend mode="normal" in="SourceGraphic" in2="BackgroundImageFix" result="shape"/>
<feGaussianBlur stdDeviation="60" result="effect1_foregroundBlur_83_91"/>
</filter>
<filter id="filter3_di_83_91" x="664" y="212" width="32" height="32" filterUnits="userSpaceOnUse" color-interpolation-filters="sRGB">
<feFlood flood-opacity="0" result="BackgroundImageFix"/>
<feColorMatrix in="SourceAlpha" type="matrix" values="0 0 0 0 0 0 0 0 0 0 0 0 0 0 0 0 0 0 127 0" result="hardAlpha"/>
<feMorphology radius="2" operator="dilate" in="SourceAlpha" result="effect1_dropShadow_83_91"/>
<feOffset dy="1"/>
<feGaussianBlur stdDeviation="2"/>
<feComposite in2="hardAlpha" operator="out"/>
<feColorMatrix type="matrix" values="0 0 0 0 1 0 0 0 0 0.983654 0 0 0 0 0.983654 0 0 0 0.25 0"/>
<feBlend mode="overlay" in2="BackgroundImageFix" result="effect1_dropShadow_83_91"/>
<feBlend mode="normal" in="SourceGraphic" in2="effect1_dropShadow_83_91" result="shape"/>
<feColorMatrix in="SourceAlpha" type="matrix" values="0 0 0 0 0 0 0 0 0 0 0 0 0 0 0 0 0 0 127 0" result="hardAlpha"/>
<feMorphology radius="1" operator="erode" in="SourceAlpha" result="effect2_innerShadow_83_91"/>
<feOffset dy="1"/>
<feGaussianBlur stdDeviation="2.95"/>
<feComposite in2="hardAlpha" operator="arithmetic" k2="-1" k3="1"/>
<feColorMatrix type="matrix" values="0 0 0 0 0 0 0 0 0 0.260633 0 0 0 0 0.553846 0 0 0 1 0"/>
<feBlend mode="normal" in2="shape" result="effect2_innerShadow_83_91"/>
</filter>
<filter id="filter4_di_83_91" x="492" y="453" width="32" height="32" filterUnits="userSpaceOnUse" color-interpolation-filters="sRGB">
<feFlood flood-opacity="0" result="BackgroundImageFix"/>
<feColorMatrix in="SourceAlpha" type="matrix" values="0 0 0 0 0 0 0 0 0 0 0 0 0 0 0 0 0 0 127 0" result="hardAlpha"/>
<feMorphology radius="2" operator="dilate" in="SourceAlpha" result="effect1_dropShadow_83_91"/>
<feOffset dy="1"/>
<feGaussianBlur stdDeviation="2"/>
<feComposite in2="hardAlpha" operator="out"/>
<feColorMatrix type="matrix" values="0 0 0 0 1 0 0 0 0 0.983654 0 0 0 0 0.983654 0 0 0 0.25 0"/>
<feBlend mode="overlay" in2="BackgroundImageFix" result="effect1_dropShadow_83_91"/>
<feBlend mode="normal" in="SourceGraphic" in2="effect1_dropShadow_83_91" result="shape"/>
<feColorMatrix in="SourceAlpha" type="matrix" values="0 0 0 0 0 0 0 0 0 0 0 0 0 0 0 0 0 0 127 0" result="hardAlpha"/>
<feMorphology radius="1" operator="erode" in="SourceAlpha" result="effect2_innerShadow_83_91"/>
<feOffset dy="1"/>
<feGaussianBlur stdDeviation="2.95"/>
<feComposite in2="hardAlpha" operator="arithmetic" k2="-1" k3="1"/>
<feColorMatrix type="matrix" values="0 0 0 0 0 0 0 0 0 0.260633 0 0 0 0 0.553846 0 0 0 1 0"/>
<feBlend mode="normal" in2="shape" result="effect2_innerShadow_83_91"/>
</filter>
<filter id="filter5_di_83_91" x="576" y="333" width="32" height="32" filterUnits="userSpaceOnUse" color-interpolation-filters="sRGB">
<feFlood flood-opacity="0" result="BackgroundImageFix"/>
<feColorMatrix in="SourceAlpha" type="matrix" values="0 0 0 0 0 0 0 0 0 0 0 0 0 0 0 0 0 0 127 0" result="hardAlpha"/>
<feMorphology radius="2" operator="dilate" in="SourceAlpha" result="effect1_dropShadow_83_91"/>
<feOffset dy="1"/>
<feGaussianBlur stdDeviation="2"/>
<feComposite in2="hardAlpha" operator="out"/>
<feColorMatrix type="matrix" values="0 0 0 0 1 0 0 0 0 0.983654 0 0 0 0 0.983654 0 0 0 0.25 0"/>
<feBlend mode="overlay" in2="BackgroundImageFix" result="effect1_dropShadow_83_91"/>
<feBlend mode="normal" in="SourceGraphic" in2="effect1_dropShadow_83_91" result="shape"/>
<feColorMatrix in="SourceAlpha" type="matrix" values="0 0 0 0 0 0 0 0 0 0 0 0 0 0 0 0 0 0 127 0" result="hardAlpha"/>
<feMorphology radius="1" operator="erode" in="SourceAlpha" result="effect2_innerShadow_83_91"/>
<feOffset dy="1"/>
<feGaussianBlur stdDeviation="2.95"/>
<feComposite in2="hardAlpha" operator="arithmetic" k2="-1" k3="1"/>
<feColorMatrix type="matrix" values="0 0 0 0 0 0 0 0 0 0.260633 0 0 0 0 0.553846 0 0 0 1 0"/>
<feBlend mode="normal" in2="shape" result="effect2_innerShadow_83_91"/>
</filter>
<filter id="filter6_di_83_91" x="576" y="453" width="32" height="32" filterUnits="userSpaceOnUse" color-interpolation-filters="sRGB">
<feFlood flood-opacity="0" result="BackgroundImageFix"/>
<feColorMatrix in="SourceAlpha" type="matrix" values="0 0 0 0 0 0 0 0 0 0 0 0 0 0 0 0 0 0 127 0" result="hardAlpha"/>
<feMorphology radius="2" operator="dilate" in="SourceAlpha" result="effect1_dropShadow_83_91"/>
<feOffset dy="1"/>
<feGaussianBlur stdDeviation="2"/>
<feComposite in2="hardAlpha" operator="out"/>
<feColorMatrix type="matrix" values="0 0 0 0 1 0 0 0 0 0.983654 0 0 0 0 0.983654 0 0 0 0.25 0"/>
<feBlend mode="overlay" in2="BackgroundImageFix" result="effect1_dropShadow_83_91"/>
<feBlend mode="normal" in="SourceGraphic" in2="effect1_dropShadow_83_91" result="shape"/>
<feColorMatrix in="SourceAlpha" type="matrix" values="0 0 0 0 0 0 0 0 0 0 0 0 0 0 0 0 0 0 127 0" result="hardAlpha"/>
<feMorphology radius="1" operator="erode" in="SourceAlpha" result="effect2_innerShadow_83_91"/>
<feOffset dy="1"/>
<feGaussianBlur stdDeviation="2.95"/>
<feComposite in2="hardAlpha" operator="arithmetic" k2="-1" k3="1"/>
<feColorMatrix type="matrix" values="0 0 0 0 0 0 0 0 0 0.260633 0 0 0 0 0.553846 0 0 0 1 0"/>
<feBlend mode="normal" in2="shape" result="effect2_innerShadow_83_91"/>
</filter>
<filter id="filter7_di_83_91" x="664" y="332" width="32" height="32" filterUnits="userSpaceOnUse" color-interpolation-filters="sRGB">
<feFlood flood-opacity="0" result="BackgroundImageFix"/>
<feColorMatrix in="SourceAlpha" type="matrix" values="0 0 0 0 0 0 0 0 0 0 0 0 0 0 0 0 0 0 127 0" result="hardAlpha"/>
<feMorphology radius="2" operator="dilate" in="SourceAlpha" result="effect1_dropShadow_83_91"/>
<feOffset dy="1"/>
<feGaussianBlur stdDeviation="2"/>
<feComposite in2="hardAlpha" operator="out"/>
<feColorMatrix type="matrix" values="0 0 0 0 1 0 0 0 0 0.983654 0 0 0 0 0.983654 0 0 0 0.25 0"/>
<feBlend mode="overlay" in2="BackgroundImageFix" result="effect1_dropShadow_83_91"/>
<feBlend mode="normal" in="SourceGraphic" in2="effect1_dropShadow_83_91" result="shape"/>
<feColorMatrix in="SourceAlpha" type="matrix" values="0 0 0 0 0 0 0 0 0 0 0 0 0 0 0 0 0 0 127 0" result="hardAlpha"/>
<feMorphology radius="1" operator="erode" in="SourceAlpha" result="effect2_innerShadow_83_91"/>
<feOffset dy="1"/>
<feGaussianBlur stdDeviation="2.95"/>
<feComposite in2="hardAlpha" operator="arithmetic" k2="-1" k3="1"/>
<feColorMatrix type="matrix" values="0 0 0 0 0 0 0 0 0 0.260633 0 0 0 0 0.553846 0 0 0 1 0"/>
<feBlend mode="normal" in2="shape" result="effect2_innerShadow_83_91"/>
</filter>
<filter id="filter8_di_83_91" x="534" y="271" width="32" height="32" filterUnits="userSpaceOnUse" color-interpolation-filters="sRGB">
<feFlood flood-opacity="0" result="BackgroundImageFix"/>
<feColorMatrix in="SourceAlpha" type="matrix" values="0 0 0 0 0 0 0 0 0 0 0 0 0 0 0 0 0 0 127 0" result="hardAlpha"/>
<feMorphology radius="2" operator="dilate" in="SourceAlpha" result="effect1_dropShadow_83_91"/>
<feOffset dy="1"/>
<feGaussianBlur stdDeviation="2"/>
<feComposite in2="hardAlpha" operator="out"/>
<feColorMatrix type="matrix" values="0 0 0 0 1 0 0 0 0 0.983654 0 0 0 0 0.983654 0 0 0 0.25 0"/>
<feBlend mode="overlay" in2="BackgroundImageFix" result="effect1_dropShadow_83_91"/>
<feBlend mode="normal" in="SourceGraphic" in2="effect1_dropShadow_83_91" result="shape"/>
<feColorMatrix in="SourceAlpha" type="matrix" values="0 0 0 0 0 0 0 0 0 0 0 0 0 0 0 0 0 0 127 0" result="hardAlpha"/>
<feMorphology radius="1" operator="erode" in="SourceAlpha" result="effect2_innerShadow_83_91"/>
<feOffset dy="1"/>
<feGaussianBlur stdDeviation="2.95"/>
<feComposite in2="hardAlpha" operator="arithmetic" k2="-1" k3="1"/>
<feColorMatrix type="matrix" values="0 0 0 0 0 0 0 0 0 0.260633 0 0 0 0 0.553846 0 0 0 1 0"/>
<feBlend mode="normal" in2="shape" result="effect2_innerShadow_83_91"/>
</filter>
<linearGradient id="paint0_linear_83_91" x1="556.335" y1="-155.105" x2="1077.68" y2="522.156" gradientUnits="userSpaceOnUse">
<stop offset="0.0715811" stop-color="#0B2B8C"/>
<stop offset="0.278846" stop-color="#4669BA"/>
<stop offset="0.543269" stop-color="#14357E"/>
<stop offset="0.778846" stop-color="#42A4D9"/>
</linearGradient>
<linearGradient id="paint1_linear_83_91" x1="556.335" y1="-155.105" x2="1077.68" y2="522.156" gradientUnits="userSpaceOnUse">
<stop offset="0.0715811" stop-color="#0B2B8C"/>
<stop offset="0.278846" stop-color="#4669BA"/>
<stop offset="0.543269" stop-color="#14357E"/>
<stop offset="0.778846" stop-color="#42A4D9"/>
</linearGradient>
</defs>
</svg>
